<svg xmlns="http://www.w3.org/2000/svg" viewBox="0 0 512 512">
  <defs>
    <linearGradient id="bgGradient" x1="0%" y1="0%" x2="100%" y2="100%">
      <stop offset="0%" style="stop-color:#f59e0b"/>
      <stop offset="100%" style="stop-color:#d97706"/>
    </linearGradient>
  </defs>
  
  <!-- Background -->
  <rect width="512" height="512" rx="128" fill="url(#bgGradient)"/>
  
  <!-- Plate/Circle -->
  <circle cx="256" cy="256" r="180" fill="white" opacity="0.95"/>
  
  <!-- Fork -->
  <path d="M180 160 L180 200 Q180 220 195 230 L195 352 L215 352 L215 230 Q230 220 230 200 L230 160 L210 160 L210 190 L200 190 L200 160 Z" fill="#1f2937"/>
  
  <!-- Knife -->
  <path d="M290 160 L290 200 Q290 220 305 230 L305 352 L325 352 L325 230 Q340 220 340 200 L340 160 L325 160 L325 190 L305 190 L305 160 Z" fill="#1f2937"/>
  
  <!-- Spoon -->
  <ellipse cx="256" cy="175" rx="25" ry="35" fill="#1f2937"/>
  <rect x="246" y="200" width="20" height="152" rx="5" fill="#1f2937"/>
</svg>
